<?xml version="1.0" encoding="UTF-8" standalone="no"?>
<!DOCTYPE svg PUBLIC "-//W3C//DTD SVG 1.1//EN" "http://www.w3.org/Graphics/SVG/1.1/DTD/svg11.dtd">
<!-- Created with Vectornator (http://vectornator.io/) -->
<svg height="120.0pt" stroke-miterlimit="10" style="fill-rule:nonzero;clip-rule:evenodd;stroke-linecap:round;stroke-linejoin:round;" version="1.1" viewBox="0 0 300 120" width="300.0pt" xml:space="preserve" xmlns="http://www.w3.org/2000/svg" xmlns:xlink="http://www.w3.org/1999/xlink">
<defs/>
<g id="Untitled">
<path d="M292.193 27.6156C293.022 25.5941 293.433 23.4569 293.44 21.4379C293.44 12.6725 286.335 5.56684 277.569 5.56684L22.4307 5.56684C13.6653 5.56684 6.55962 12.6725 6.55962 21.4379C6.58497 23.6234 7.02244 25.7415 7.80685 27.6156L31.6161 96.8102C32.9806 100.365 36.5289 102.438 40.1015 102.435L259.898 102.435C264.017 102.505 267.211 100.161 268.384 96.8102L292.193 27.6156Z" fill="none" opacity="1" stroke="#380046" stroke-linecap="butt" stroke-linejoin="miter" stroke-opacity="0.99" stroke-width="5"/>
<path d="M128.265 102.435L128.265 114.432L171.735 114.432L171.735 102.435" fill="none" opacity="1" stroke="#005323" stroke-linecap="butt" stroke-linejoin="miter" stroke-width="3.22"/>
<path d="M58.1077 46.67L99.5519 46.67L140.996 46.67L140.996 46.67L140.996 46.67L140.996 54.0015L140.996 61.3331L140.996 61.3331L140.996 61.3331L99.5519 61.3331L58.1077 61.3331L58.1077 61.3331L58.1077 61.3331L58.1077 54.0015L58.1077 46.67L58.1077 46.67L58.1077 46.67Z" fill="none" opacity="1" stroke="#005323" stroke-linecap="butt" stroke-linejoin="miter" stroke-width="3.22"/>
<path d="M159.004 46.67L241.892 46.67L241.892 46.67L241.892 61.3331L241.892 61.3331L159.004 61.3331L159.004 61.3331L159.004 46.67L159.004 46.67Z" fill="none" opacity="1" stroke="#005323" stroke-linecap="butt" stroke-linejoin="miter" stroke-width="3.22"/>
<path d="M58.1077 18.2212L73.3652 18.2212L73.3652 18.2212L73.3652 29.3177L73.3652 29.3177L58.1077 29.3177L58.1077 29.3177L58.1077 18.2212L58.1077 18.2212Z" fill="#ffffff" fill-rule="nonzero" opacity="1" stroke="#000000" stroke-linecap="butt" stroke-linejoin="miter" stroke-width="2"/>
<path d="M82.183 18.2212L97.4405 18.2212L97.4405 18.2212L97.4405 29.3177L97.4405 29.3177L82.183 29.3177L82.183 29.3177L82.183 18.2212L82.183 18.2212Z" fill="#0000ff" fill-rule="nonzero" opacity="1" stroke="#000000" stroke-linecap="butt" stroke-linejoin="miter" stroke-width="2"/>
<path d="M106.258 18.2212L121.516 18.2212L121.516 18.2212L121.516 29.3177L121.516 29.3177L106.258 29.3177L106.258 29.3177L106.258 18.2212L106.258 18.2212Z" fill="#ffffff" fill-rule="nonzero" opacity="1" stroke="#000000" stroke-linecap="butt" stroke-linejoin="miter" stroke-width="2"/>
<path d="M130.334 18.2212L145.591 18.2212L145.591 18.2212L145.591 29.3177L145.591 29.3177L130.334 29.3177L130.334 29.3177L130.334 18.2212L130.334 18.2212Z" fill="#999999" fill-rule="nonzero" opacity="1" stroke="#000000" stroke-linecap="butt" stroke-linejoin="miter" stroke-width="2"/>
<path d="M154.409 18.2212L169.666 18.2212L169.666 18.2212L169.666 29.3177L169.666 29.3177L154.409 29.3177L154.409 29.3177L154.409 18.2212L154.409 18.2212Z" fill="#999999" fill-rule="nonzero" opacity="1" stroke="#000000" stroke-linecap="butt" stroke-linejoin="miter" stroke-width="2"/>
<path d="M178.484 18.2212L193.742 18.2212L193.742 18.2212L193.742 29.3177L193.742 29.3177L178.484 29.3177L178.484 29.3177L178.484 18.2212L178.484 18.2212Z" fill="#00ff00" fill-rule="nonzero" opacity="1" stroke="#000000" stroke-linecap="butt" stroke-linejoin="miter" stroke-width="2"/>
<path d="M202.559 18.2212L217.817 18.2212L217.817 18.2212L217.817 29.3177L217.817 29.3177L202.559 29.3177L202.559 29.3177L202.559 18.2212L202.559 18.2212Z" fill="#ffff00" fill-rule="nonzero" opacity="1" stroke="#000000" stroke-linecap="butt" stroke-linejoin="miter" stroke-width="2"/>
<path d="M226.635 18.2212L234.264 18.2212L241.892 18.2212L241.892 18.2212L241.892 18.2212L241.892 23.7695L241.892 29.3177L241.892 29.3177L241.892 29.3177L234.264 29.3177L226.635 29.3177L226.635 29.3177L226.635 29.3177L226.635 23.7695L226.635 18.2212L226.635 18.2212L226.635 18.2212Z" fill="#ffffff" fill-rule="nonzero" opacity="1" stroke="#000000" stroke-linecap="butt" stroke-linejoin="miter" stroke-width="2"/>
<path d="M58.1077 78.6854L73.3652 78.6854L73.3652 78.6854L73.3652 89.7818L73.3652 89.7818L58.1077 89.7818L58.1077 89.7818L58.1077 78.6854L58.1077 78.6854Z" fill="#ffffff" fill-rule="nonzero" opacity="1" stroke="#000000" stroke-linecap="butt" stroke-linejoin="miter" stroke-width="2"/>
<path d="M82.183 78.6854L97.4405 78.6854L97.4405 78.6854L97.4405 89.7818L97.4405 89.7818L82.183 89.7818L82.183 89.7818L82.183 78.6854L82.183 78.6854Z" fill="#0000ff" fill-rule="nonzero" opacity="1" stroke="#000000" stroke-linecap="butt" stroke-linejoin="miter" stroke-width="2"/>
<path d="M106.258 78.6854L121.516 78.6854L121.516 78.6854L121.516 89.7818L121.516 89.7818L106.258 89.7818L106.258 89.7818L106.258 78.6854L106.258 78.6854Z" fill="#ffffff" fill-rule="nonzero" opacity="1" stroke="#000000" stroke-linecap="butt" stroke-linejoin="miter" stroke-width="2"/>
<path d="M130.334 78.6854L145.591 78.6854L145.591 78.6854L145.591 89.7818L145.591 89.7818L130.334 89.7818L130.334 89.7818L130.334 78.6854L130.334 78.6854Z" fill="#ffffff" fill-rule="nonzero" opacity="1" stroke="#000000" stroke-linecap="butt" stroke-linejoin="miter" stroke-width="2"/>
<path d="M154.409 78.6854L169.666 78.6854L169.666 78.6854L169.666 89.7818L169.666 89.7818L154.409 89.7818L154.409 89.7818L154.409 78.6854L154.409 78.6854Z" fill="#ffffff" fill-rule="nonzero" opacity="1" stroke="#000000" stroke-linecap="butt" stroke-linejoin="miter" stroke-width="2"/>
<path d="M178.484 78.6854L193.742 78.6854L193.742 78.6854L193.742 89.7818L193.742 89.7818L178.484 89.7818L178.484 89.7818L178.484 78.6854L178.484 78.6854Z" fill="#00ff00" fill-rule="nonzero" opacity="1" stroke="#000000" stroke-linecap="butt" stroke-linejoin="miter" stroke-width="2"/>
<path d="M202.559 78.6854L217.817 78.6854L217.817 78.6854L217.817 89.7818L217.817 89.7818L202.559 89.7818L202.559 89.7818L202.559 78.6854L202.559 78.6854Z" fill="#ffff00" fill-rule="nonzero" opacity="1" stroke="#000000" stroke-linecap="butt" stroke-linejoin="miter" stroke-width="2"/>
<path d="M226.635 78.6854L241.892 78.6854L241.892 78.6854L241.892 89.7818L241.892 89.7818L226.635 89.7818L226.635 89.7818L226.635 78.6854L226.635 78.6854Z" fill="#ff0000" fill-rule="nonzero" opacity="1" stroke="#000000" stroke-linecap="butt" stroke-linejoin="miter" stroke-width="2"/>
<path d="M43.9507 29.9704L43.9507 29.1079C44.7632 29.0287 45.3299 28.8964 45.6507 28.711C45.9715 28.5256 46.2111 28.087 46.3695 27.3954L47.257 27.3954L47.257 36.3079L46.057 36.3079L46.057 29.9704L43.9507 29.9704Z" fill="#000000" opacity="0" stroke="none"/>
<path d="M251.854 31.1079C252.35 31.1079 252.738 30.9693 253.017 30.6923C253.296 30.4152 253.436 30.085 253.436 29.7016C253.436 29.3683 253.302 29.062 253.036 28.7829C252.769 28.5037 252.363 28.3641 251.817 28.3641C251.275 28.3641 250.884 28.5037 250.642 28.7829C250.4 29.062 250.279 29.3891 250.279 29.7641C250.279 30.185 250.436 30.5141 250.748 30.7516C251.061 30.9891 251.429 31.1079 251.854 31.1079ZM251.923 35.5391C252.444 35.5391 252.876 35.3985 253.22 35.1173C253.564 34.836 253.736 34.4162 253.736 33.8579C253.736 33.2787 253.559 32.8391 253.204 32.5391C252.85 32.2391 252.396 32.0891 251.842 32.0891C251.304 32.0891 250.866 32.2423 250.526 32.5485C250.187 32.8548 250.017 33.2787 250.017 33.8204C250.017 34.287 250.172 34.6902 250.483 35.0298C250.793 35.3693 251.273 35.5391 251.923 35.5391ZM250.323 31.5391C250.011 31.4058 249.767 31.2495 249.592 31.0704C249.263 30.737 249.098 30.3037 249.098 29.7704C249.098 29.1037 249.34 28.5308 249.823 28.0516C250.307 27.5725 250.992 27.3329 251.879 27.3329C252.738 27.3329 253.411 27.5589 253.898 28.011C254.386 28.4631 254.629 28.9912 254.629 29.5954C254.629 30.1537 254.488 30.6058 254.204 30.9516C254.046 31.1475 253.8 31.3391 253.467 31.5266C253.838 31.6975 254.129 31.8933 254.342 32.1141C254.738 32.5308 254.936 33.0725 254.936 33.7391C254.936 34.5266 254.671 35.1943 254.142 35.7423C253.613 36.2902 252.865 36.5641 251.898 36.5641C251.027 36.5641 250.291 36.3277 249.689 35.8548C249.087 35.3818 248.786 34.6954 248.786 33.7954C248.786 33.2662 248.915 32.8089 249.173 32.4235C249.432 32.0381 249.815 31.7433 250.323 31.5391Z" fill="#000000" opacity="0" stroke="none"/>
<path d="M44.4257 80.7848C44.459 81.4057 44.6986 81.8348 45.1445 82.0723C45.3736 82.1973 45.632 82.2598 45.9195 82.2598C46.457 82.2598 46.9153 82.0359 47.2945 81.588C47.6736 81.1401 47.9424 80.2307 48.1007 78.8598C47.8507 79.2557 47.5413 79.5338 47.1726 79.6942C46.8038 79.8546 46.407 79.9348 45.982 79.9348C45.1195 79.9348 44.4372 79.6661 43.9351 79.1286C43.433 78.5911 43.182 77.8994 43.182 77.0536C43.182 76.2411 43.4299 75.5265 43.9257 74.9098C44.4215 74.2932 45.1528 73.9848 46.1195 73.9848C47.4236 73.9848 48.3236 74.5723 48.8195 75.7473C49.0945 76.3932 49.232 77.2015 49.232 78.1723C49.232 79.2682 49.0674 80.239 48.7382 81.0848C48.1924 82.4932 47.2674 83.1973 45.9632 83.1973C45.0882 83.1973 44.4236 82.9682 43.9695 82.5098C43.5153 82.0515 43.2882 81.4765 43.2882 80.7848L44.4257 80.7848ZM46.132 78.9473C46.5778 78.9473 46.9851 78.8005 47.3538 78.5067C47.7226 78.213 47.907 77.6994 47.907 76.9661C47.907 76.3078 47.7413 75.8171 47.4101 75.4942C47.0788 75.1713 46.657 75.0098 46.1445 75.0098C45.5945 75.0098 45.158 75.1942 44.8351 75.563C44.5122 75.9317 44.3507 76.4244 44.3507 77.0411C44.3507 77.6244 44.4924 78.088 44.7757 78.4317C45.059 78.7755 45.5111 78.9473 46.132 78.9473Z" fill="#000000" opacity="0" stroke="none"/>
<g fill="#000000" opacity="0" stroke="none">
<path d="M249.598 76.6098L249.598 75.7473C250.411 75.6682 250.977 75.5359 251.298 75.3505C251.619 75.165 251.859 74.7265 252.017 74.0348L252.904 74.0348L252.904 82.9473L251.704 82.9473L251.704 76.6098L249.598 76.6098Z"/>
<path d="M259.236 73.9598C260.236 73.9598 260.933 74.2192 261.326 74.738C261.72 75.2567 261.917 75.7911 261.917 76.3411L260.804 76.3411C260.738 75.9869 260.632 75.7098 260.486 75.5098C260.215 75.1348 259.804 74.9473 259.254 74.9473C258.625 74.9473 258.125 75.238 257.754 75.8192C257.384 76.4005 257.177 77.2328 257.136 78.3161C257.394 77.9369 257.719 77.6536 258.111 77.4661C258.469 77.2994 258.869 77.2161 259.311 77.2161C260.061 77.2161 260.715 77.4557 261.273 77.9348C261.832 78.414 262.111 79.1286 262.111 80.0786C262.111 80.8911 261.846 81.6109 261.317 82.238C260.788 82.8651 260.034 83.1786 259.054 83.1786C258.217 83.1786 257.494 82.8609 256.886 82.2255C256.277 81.5901 255.973 80.5203 255.973 79.0161C255.973 77.9036 256.109 76.9598 256.379 76.1848C256.9 74.7015 257.852 73.9598 259.236 73.9598ZM259.154 82.1786C259.746 82.1786 260.189 81.9796 260.483 81.5817C260.776 81.1838 260.923 80.714 260.923 80.1723C260.923 79.714 260.792 79.2775 260.529 78.863C260.267 78.4484 259.79 78.2411 259.098 78.2411C258.615 78.2411 258.191 78.4015 257.826 78.7223C257.462 79.0432 257.279 79.5265 257.279 80.1723C257.279 80.739 257.445 81.2151 257.776 81.6005C258.108 81.9859 258.567 82.1786 259.154 82.1786Z"/>
</g>
</g>
</svg>
